<svg xmlns="http://www.w3.org/2000/svg" xmlns:xlink="http://www.w3.org/1999/xlink" width="920" height="624.46"><rect width="920" height="624.46" rx="5" ry="5" class="a"/><svg y="0%" x="0%"><circle cx="20" cy="20" r="6" fill="#ff5f58"/><circle cx="40" cy="20" r="6" fill="#ffbd2e"/><circle cx="60" cy="20" r="6" fill="#18c132"/></svg><svg height="564.46" viewBox="0 0 88 56.446" width="880" x="15" xmlns="http://www.w3.org/2000/svg" xmlns:xlink="http://www.w3.org/1999/xlink" y="50"><style>@keyframes l{0%{transform:translateX(-88px)}32.9%{transform:translateX(-176px)}33%{transform:translateX(-264px)}36.9%{transform:translateX(-352px)}38%{transform:translateX(-440px)}40.6%{transform:translateX(-528px)}41.7%{transform:translateX(-616px)}42.9%{transform:translateX(-704px)}47.2%{transform:translateX(-792px)}51.9%{transform:translateX(-1056px)}68%{transform:translateX(-1144px)}69.2%{transform:translateX(-1232px)}70%{transform:translateX(-1320px)}74.2%{transform:translateX(-1408px)}75.4%{transform:translateX(-1496px)}87.4%{transform:translateX(-1584px)}88.7%{transform:translateX(-1672px)}90.3%{transform:translateX(-1760px)}91.3%{transform:translateX(-1848px)}92%{transform:translateX(-1936px)}93%{transform:translateX(-2024px)}to{transform:translateX(-2112px)}}.a{fill:#1e1f29}.f{fill:#e6e6e6}.f,.g,.h,.i{white-space:pre}.g{fill:#f1fa8c;font-weight:700}.h,.i{fill:#50fa7b}.i{fill:#8be9fd}</style><g font-family="Monaco,Consolas,Menlo,'Bitstream Vera Sans Mono','Powerline Symbols',monospace" font-size="1.67"><defs><symbol id="1"><text y="1.67" class="f">bash-5.3$</text></symbol><symbol id="2"><text y="1.67" class="f">bash-5.3$</text><text x="10.02" y="1.67" class="f">n</text></symbol><symbol id="3"><text y="1.67" class="f">bash-5.3$</text><text x="10.02" y="1.67" class="f">nr</text></symbol><symbol id="4"><text y="1.67" class="f">bash-5.3$</text><text x="10.02" y="1.67" class="f">nri</text></symbol><symbol id="5"><text y="1.67" class="f">bash-5.3$</text><text x="10.02" y="1.67" class="f">nrip</text></symbol><symbol id="6"><text y="1.67" class="f">Safe</text><text x="5.01" y="1.67" class="f">rm</text><text x="8.016" y="1.67" class="f">with</text><text x="13.026" y="1.67" class="f">a</text><text x="15.03" y="1.67" class="f">graveyard</text></symbol><symbol id="7"><text y="1.67" class="g">Usage:</text><text x="7.014" y="1.67" class="h">nrip</text><text x="12.024" y="1.67" class="i">[OPTIONS]</text><text x="22.044" y="1.67" class="i">[PATHS]...</text></symbol><symbol id="8"><text y="1.67" class="g">Arguments:</text></symbol><symbol id="9"><text x="2.004" y="1.67" class="i">[PATHS]...</text><text x="14.028" y="1.67" class="f">Files/dirs</text><text x="25.05" y="1.67" class="f">to</text><text x="28.056" y="1.67" class="f">remove</text><text x="35.07" y="1.67" class="f">(default</text><text x="44.088" y="1.67" class="f">action)</text></symbol><symbol id="10"><text y="1.67" class="g">Options:</text></symbol><symbol id="11"><text x="2.004" y="1.67" class="h">-c</text><text x="4.008" y="1.67" class="f">,</text><text x="6.012" y="1.67" class="h">--cremate</text><text x="16.032" y="1.67" class="i">[&lt;TARGET&gt;]</text><text x="30.06" y="1.67" class="f">Permanently</text><text x="42.084" y="1.67" class="f">remove</text><text x="49.098" y="1.67" class="f">from</text><text x="54.108" y="1.67" class="f">graveyard</text></symbol><symbol id="12"><text x="2.004" y="1.67" class="h">-r</text><text x="4.008" y="1.67" class="f">,</text><text x="6.012" y="1.67" class="h">--resurrect</text><text x="18.036" y="1.67" class="i">[&lt;TARGET&gt;]</text><text x="30.06" y="1.67" class="f">Resurrect</text><text x="40.08" y="1.67" class="f">(restore)</text><text x="50.1" y="1.67" class="f">from</text><text x="55.11" y="1.67" class="f">graveyard</text></symbol><symbol id="13"><text x="6.012" y="1.67" class="h">--target</text><text x="15.03" y="1.67" class="i">&lt;TARGET&gt;</text><text x="30.06" y="1.67" class="f">(optional)</text><text x="41.082" y="1.67" class="f">explicit</text><text x="50.1" y="1.67" class="f">target</text><text x="57.114" y="1.67" class="f">(used</text><text x="63.126" y="1.67" class="f">with</text><text x="68.136" y="1.67" class="f">--cremate/--resurrec</text></symbol><symbol id="14"><text y="1.67" class="f">t)</text></symbol><symbol id="15"><text x="2.004" y="1.67" class="h">-f</text><text x="4.008" y="1.67" class="f">,</text><text x="6.012" y="1.67" class="h">--force</text><text x="30.06" y="1.67" class="f">(optional)</text><text x="41.082" y="1.67" class="f">force</text></symbol><symbol id="16"><text x="2.004" y="1.67" class="h">-l</text><text x="4.008" y="1.67" class="f">,</text><text x="6.012" y="1.67" class="h">--list</text><text x="30.06" y="1.67" class="f">List</text><text x="35.07" y="1.67" class="f">graveyard</text><text x="45.09" y="1.67" class="f">contents</text></symbol><symbol id="17"><text x="6.012" y="1.67" class="h">--dry-run</text><text x="30.06" y="1.67" class="f">Dry</text><text x="34.068" y="1.67" class="f">run</text><text x="38.076" y="1.67" class="f">(no</text><text x="42.084" y="1.67" class="f">changes)</text></symbol><symbol id="18"><text x="2.004" y="1.67" class="h">-y</text><text x="4.008" y="1.67" class="f">,</text><text x="6.012" y="1.67" class="h">--yes</text><text x="30.06" y="1.67" class="f">(optional)</text><text x="41.082" y="1.67" class="f">skip</text><text x="46.092" y="1.67" class="f">confirmation</text><text x="59.118" y="1.67" class="f">prompts</text></symbol><symbol id="19"><text x="2.004" y="1.67" class="h">-h</text><text x="4.008" y="1.67" class="f">,</text><text x="6.012" y="1.67" class="h">--help</text><text x="30.06" y="1.67" class="f">Print</text><text x="36.072" y="1.67" class="f">help</text></symbol><symbol id="20"><text x="2.004" y="1.67" class="h">-V</text><text x="4.008" y="1.67" class="f">,</text><text x="6.012" y="1.67" class="h">--version</text><text x="30.06" y="1.67" class="f">Print</text><text x="36.072" y="1.67" class="f">version</text></symbol><symbol id="a"><path fill="transparent" d="M0 0h88v27H0z"/></symbol><symbol id="b"><path fill="#bbb" d="M0 0h1.102v2.171H0z"/></symbol></defs><path class="a" d="M0 0h88v56.446H0z"/><g style="animation-duration:12.791337s;animation-iteration-count:infinite;animation-name:l;animation-timing-function:steps(1,end)"><svg width="2200"><svg><use xlink:href="#a"/><use xlink:href="#b" x="-.004"/></svg><svg x="88"><use xlink:href="#a"/><use xlink:href="#b" x="9.996"/><use xlink:href="#1"/></svg><svg x="176"><use xlink:href="#a"/><use xlink:href="#b" x="10.996"/><use xlink:href="#2"/></svg><svg x="264"><use xlink:href="#a"/><use xlink:href="#b" x="11.996"/><text y="1.67" class="f">bash-5.3$</text><text x="10.02" y="1.67" class="f">nm</text></svg><svg x="352"><use xlink:href="#a"/><use xlink:href="#b" x="10.996"/><use xlink:href="#2"/></svg><svg x="440"><use xlink:href="#a"/><use xlink:href="#b" x="9.996"/><use xlink:href="#1"/></svg><svg x="528"><use xlink:href="#a"/><use xlink:href="#b" x="10.996"/><use xlink:href="#2"/></svg><svg x="616"><use xlink:href="#a"/><use xlink:href="#b" x="11.996"/><use xlink:href="#3"/></svg><svg x="704"><use xlink:href="#a"/><use xlink:href="#b" x="12.996"/><use xlink:href="#4"/></svg><svg x="792"><use xlink:href="#a"/><use xlink:href="#b" x="13.996"/><use xlink:href="#5"/></svg><svg x="880"><use xlink:href="#a"/><use xlink:href="#b" x="-.004" y="2.146"/><use xlink:href="#5"/></svg><svg x="968"><use xlink:href="#a"/><use xlink:href="#b" x="-.004" y="43.395"/><use xlink:href="#5"/><use xlink:href="#6" y="2.171"/><use xlink:href="#7" y="6.513"/><use xlink:href="#8" y="10.855"/><use xlink:href="#9" y="13.026"/><use xlink:href="#10" y="17.368"/><use xlink:href="#11" y="19.539"/><use xlink:href="#12" y="21.71"/><use xlink:href="#13" y="23.881"/><use xlink:href="#14" y="26.052"/><use xlink:href="#15" y="28.223"/><use xlink:href="#16" y="30.394"/><use xlink:href="#17" y="32.565"/><use xlink:href="#18" y="34.736"/><use xlink:href="#19" y="36.907"/><use xlink:href="#20" y="39.078"/></svg><svg x="1056"><use xlink:href="#a"/><use xlink:href="#b" x="9.996" y="43.395"/><use xlink:href="#5"/><use xlink:href="#6" y="2.171"/><use xlink:href="#7" y="6.513"/><use xlink:href="#8" y="10.855"/><use xlink:href="#9" y="13.026"/><use xlink:href="#10" y="17.368"/><use xlink:href="#11" y="19.539"/><use xlink:href="#12" y="21.71"/><use xlink:href="#13" y="23.881"/><use xlink:href="#14" y="26.052"/><use xlink:href="#15" y="28.223"/><use xlink:href="#16" y="30.394"/><use xlink:href="#17" y="32.565"/><use xlink:href="#18" y="34.736"/><use xlink:href="#19" y="36.907"/><use xlink:href="#20" y="39.078"/><use xlink:href="#1" y="43.42"/></svg><svg x="1144"><use xlink:href="#a"/><use xlink:href="#b" x="10.996" y="43.395"/><use xlink:href="#5"/><use xlink:href="#6" y="2.171"/><use xlink:href="#7" y="6.513"/><use xlink:href="#8" y="10.855"/><use xlink:href="#9" y="13.026"/><use xlink:href="#10" y="17.368"/><use xlink:href="#11" y="19.539"/><use xlink:href="#12" y="21.71"/><use xlink:href="#13" y="23.881"/><use xlink:href="#14" y="26.052"/><use xlink:href="#15" y="28.223"/><use xlink:href="#16" y="30.394"/><use xlink:href="#17" y="32.565"/><use xlink:href="#18" y="34.736"/><use xlink:href="#19" y="36.907"/><use xlink:href="#20" y="39.078"/><use xlink:href="#2" y="43.42"/></svg><svg x="1232"><use xlink:href="#a"/><use xlink:href="#b" x="11.996" y="43.395"/><use xlink:href="#5"/><use xlink:href="#6" y="2.171"/><use xlink:href="#7" y="6.513"/><use xlink:href="#8" y="10.855"/><use xlink:href="#9" y="13.026"/><use xlink:href="#10" y="17.368"/><use xlink:href="#11" y="19.539"/><use xlink:href="#12" y="21.71"/><use xlink:href="#13" y="23.881"/><use xlink:href="#14" y="26.052"/><use xlink:href="#15" y="28.223"/><use xlink:href="#16" y="30.394"/><use xlink:href="#17" y="32.565"/><use xlink:href="#18" y="34.736"/><use xlink:href="#19" y="36.907"/><use xlink:href="#20" y="39.078"/><use xlink:href="#3" y="43.42"/></svg><svg x="1320"><use xlink:href="#a"/><use xlink:href="#b" x="12.996" y="43.395"/><use xlink:href="#5"/><use xlink:href="#6" y="2.171"/><use xlink:href="#7" y="6.513"/><use xlink:href="#8" y="10.855"/><use xlink:href="#9" y="13.026"/><use xlink:href="#10" y="17.368"/><use xlink:href="#11" y="19.539"/><use xlink:href="#12" y="21.71"/><use xlink:href="#13" y="23.881"/><use xlink:href="#14" y="26.052"/><use xlink:href="#15" y="28.223"/><use xlink:href="#16" y="30.394"/><use xlink:href="#17" y="32.565"/><use xlink:href="#18" y="34.736"/><use xlink:href="#19" y="36.907"/><use xlink:href="#20" y="39.078"/><use xlink:href="#4" y="43.42"/></svg><svg x="1408"><use xlink:href="#a"/><use xlink:href="#b" x="13.996" y="43.395"/><use xlink:href="#5"/><use xlink:href="#6" y="2.171"/><use xlink:href="#7" y="6.513"/><use xlink:href="#8" y="10.855"/><use xlink:href="#9" y="13.026"/><use xlink:href="#10" y="17.368"/><use xlink:href="#11" y="19.539"/><use xlink:href="#12" y="21.71"/><use xlink:href="#13" y="23.881"/><use xlink:href="#14" y="26.052"/><use xlink:href="#15" y="28.223"/><use xlink:href="#16" y="30.394"/><use xlink:href="#17" y="32.565"/><use xlink:href="#18" y="34.736"/><use xlink:href="#19" y="36.907"/><use xlink:href="#20" y="39.078"/><use xlink:href="#5" y="43.42"/></svg><svg x="1496"><use xlink:href="#a"/><use xlink:href="#b" x="14.996" y="43.395"/><use xlink:href="#5"/><use xlink:href="#6" y="2.171"/><use xlink:href="#7" y="6.513"/><use xlink:href="#8" y="10.855"/><use xlink:href="#9" y="13.026"/><use xlink:href="#10" y="17.368"/><use xlink:href="#11" y="19.539"/><use xlink:href="#12" y="21.71"/><use xlink:href="#13" y="23.881"/><use xlink:href="#14" y="26.052"/><use xlink:href="#15" y="28.223"/><use xlink:href="#16" y="30.394"/><use xlink:href="#17" y="32.565"/><use xlink:href="#18" y="34.736"/><use xlink:href="#19" y="36.907"/><use xlink:href="#20" y="39.078"/><use xlink:href="#5" y="43.42"/></svg><svg x="1584"><use xlink:href="#a"/><use xlink:href="#b" x="13.996" y="43.395"/><use xlink:href="#5"/><use xlink:href="#6" y="2.171"/><use xlink:href="#7" y="6.513"/><use xlink:href="#8" y="10.855"/><use xlink:href="#9" y="13.026"/><use xlink:href="#10" y="17.368"/><use xlink:href="#11" y="19.539"/><use xlink:href="#12" y="21.71"/><use xlink:href="#13" y="23.881"/><use xlink:href="#14" y="26.052"/><use xlink:href="#15" y="28.223"/><use xlink:href="#16" y="30.394"/><use xlink:href="#17" y="32.565"/><use xlink:href="#18" y="34.736"/><use xlink:href="#19" y="36.907"/><use xlink:href="#20" y="39.078"/><use xlink:href="#5" y="43.42"/></svg><svg x="1672"><use xlink:href="#a"/><use xlink:href="#b" x="12.996" y="43.395"/><use xlink:href="#5"/><use xlink:href="#6" y="2.171"/><use xlink:href="#7" y="6.513"/><use xlink:href="#8" y="10.855"/><use xlink:href="#9" y="13.026"/><use xlink:href="#10" y="17.368"/><use xlink:href="#11" y="19.539"/><use xlink:href="#12" y="21.71"/><use xlink:href="#13" y="23.881"/><use xlink:href="#14" y="26.052"/><use xlink:href="#15" y="28.223"/><use xlink:href="#16" y="30.394"/><use xlink:href="#17" y="32.565"/><use xlink:href="#18" y="34.736"/><use xlink:href="#19" y="36.907"/><use xlink:href="#20" y="39.078"/><use xlink:href="#4" y="43.42"/></svg><svg x="1760"><use xlink:href="#a"/><use xlink:href="#b" x="11.996" y="43.395"/><use xlink:href="#5"/><use xlink:href="#6" y="2.171"/><use xlink:href="#7" y="6.513"/><use xlink:href="#8" y="10.855"/><use xlink:href="#9" y="13.026"/><use xlink:href="#10" y="17.368"/><use xlink:href="#11" y="19.539"/><use xlink:href="#12" y="21.71"/><use xlink:href="#13" y="23.881"/><use xlink:href="#14" y="26.052"/><use xlink:href="#15" y="28.223"/><use xlink:href="#16" y="30.394"/><use xlink:href="#17" y="32.565"/><use xlink:href="#18" y="34.736"/><use xlink:href="#19" y="36.907"/><use xlink:href="#20" y="39.078"/><use xlink:href="#3" y="43.42"/></svg><svg x="1848"><use xlink:href="#a"/><use xlink:href="#b" x="10.996" y="43.395"/><use xlink:href="#5"/><use xlink:href="#6" y="2.171"/><use xlink:href="#7" y="6.513"/><use xlink:href="#8" y="10.855"/><use xlink:href="#9" y="13.026"/><use xlink:href="#10" y="17.368"/><use xlink:href="#11" y="19.539"/><use xlink:href="#12" y="21.71"/><use xlink:href="#13" y="23.881"/><use xlink:href="#14" y="26.052"/><use xlink:href="#15" y="28.223"/><use xlink:href="#16" y="30.394"/><use xlink:href="#17" y="32.565"/><use xlink:href="#18" y="34.736"/><use xlink:href="#19" y="36.907"/><use xlink:href="#20" y="39.078"/><use xlink:href="#2" y="43.42"/></svg><svg x="1936"><use xlink:href="#a"/><use xlink:href="#b" x="9.996" y="43.395"/><use xlink:href="#5"/><use xlink:href="#6" y="2.171"/><use xlink:href="#7" y="6.513"/><use xlink:href="#8" y="10.855"/><use xlink:href="#9" y="13.026"/><use xlink:href="#10" y="17.368"/><use xlink:href="#11" y="19.539"/><use xlink:href="#12" y="21.71"/><use xlink:href="#13" y="23.881"/><use xlink:href="#14" y="26.052"/><use xlink:href="#15" y="28.223"/><use xlink:href="#16" y="30.394"/><use xlink:href="#17" y="32.565"/><use xlink:href="#18" y="34.736"/><use xlink:href="#19" y="36.907"/><use xlink:href="#20" y="39.078"/><use xlink:href="#1" y="43.42"/></svg><svg x="2024"><use xlink:href="#a"/><use xlink:href="#b" x="9.996" y="43.395"/><use xlink:href="#5"/><use xlink:href="#6" y="2.171"/><use xlink:href="#7" y="6.513"/><use xlink:href="#8" y="10.855"/><use xlink:href="#9" y="13.026"/><use xlink:href="#10" y="17.368"/><use xlink:href="#11" y="19.539"/><use xlink:href="#12" y="21.71"/><use xlink:href="#13" y="23.881"/><use xlink:href="#14" y="26.052"/><use xlink:href="#15" y="28.223"/><use xlink:href="#16" y="30.394"/><use xlink:href="#17" y="32.565"/><use xlink:href="#18" y="34.736"/><use xlink:href="#19" y="36.907"/><use xlink:href="#20" y="39.078"/><use xlink:href="#1" y="43.42"/></svg><svg x="2112"><use xlink:href="#a"/><use xlink:href="#b" x="-.004" y="47.737"/><use xlink:href="#5"/><use xlink:href="#6" y="2.171"/><use xlink:href="#7" y="6.513"/><use xlink:href="#8" y="10.855"/><use xlink:href="#9" y="13.026"/><use xlink:href="#10" y="17.368"/><use xlink:href="#11" y="19.539"/><use xlink:href="#12" y="21.71"/><use xlink:href="#13" y="23.881"/><use xlink:href="#14" y="26.052"/><use xlink:href="#15" y="28.223"/><use xlink:href="#16" y="30.394"/><use xlink:href="#17" y="32.565"/><use xlink:href="#18" y="34.736"/><use xlink:href="#19" y="36.907"/><use xlink:href="#20" y="39.078"/><use xlink:href="#1" y="43.42"/><text y="47.261" class="f">exit</text></svg></svg></g></g></svg></svg>